<svg id="Layer_1" data-name="Layer 1" xmlns="http://www.w3.org/2000/svg" viewBox="0 0 595.28 557.61"><defs><style>.cls-1{fill:#fff;}</style></defs><title>gate</title><rect class="cls-1" width="595.28" height="557.61"/><path d="M508.2,175.21c-14.82.68-29.64,1.35-44.45,2.13-11.28.59-22.55,1.53-33.84,2-12.64.49-25.3.59-38,.87-1.54,0-3.08.15-4.62.16-4.85,0-9.69,0-14.53.16-.66,0-1.24,1-1.92,1.46s-1.5,1.17-2.14,1.06-1-1.23-1.14-2c-1-3.93-1.82-7.88-2.72-11.83a21.79,21.79,0,0,0-2,8.06c0,2.63-1.07,3.09-3.28,3.14-4.33.08-8.65.34-13,.6-.81.05-2.18.29-2.3.72-.79,2.77-1.89,1.09-3,.39a5.47,5.47,0,0,0-2.35-1c-4.06-.13-8.14-.29-12.2-.06-2,.12-3.94,1.06-6.11,1.69-1.14-1.62-8.4-2.24-11.36-1l3.28,5.5-6.19,1.4a67.35,67.35,0,0,0,12.45-2.11c2.45-.59,5-1.92,7.32-1.65,3.25.36,6.37,1.89,9.54,2.95.79.26,1.56.62,2.33.93,0,.4.07.79.1,1.18-3.29.93-6.65,1.68-9.87,2.83-7.22,2.58-14.6.28-21.88.93-.1,0-.23-.39-.45-.78l2.32-.53-11.56-2.1a19.68,19.68,0,0,1-1.55,3.74c-.33.51-1.42.51-2.16.75-.07-2.74-1.85-1.18-3-1.28a40.08,40.08,0,0,1-4.34-1l2.62-.73c-5.12-2.86-10,1.42-16.41,2.18,3.17-2.48,5.58-3.92,7.4-5.89,3.71-4,10.89-4.43,13.64-1.31l14.87-2.35-4.19-1-.2-.71,2-.62-.66-1.76c-16.55,0-33.1.15-49.65-.05-10.24-.12-20.48-.76-30.72-1.15-3.57-.13-5.18-1.84-5.71-5.5-.59-4.07-2-8-3.13-12h-1.42c-.67,3.78-1.49,7.54-2,11.35-.51,4.12-1.61,5.38-5.73,5.23-5.64-.21-11.28-.55-16.92-.94-11.78-.81-23.59-1.44-35.34-2.67-5.86-.61-11.45-.59-17,1.3-2.66.89-3.66,2.06-2.29,4.89a8.58,8.58,0,0,1,.39,4.55C134.26,193.5,138,201.92,145,204c3.75,1.13,7.61,2.51,11.44,2.56,16,.22,32,.11,48-.21,3.13-.06,3.69.91,3.36,3.5-.77,6-1.47,12-2.28,18-.41,3-2,4.47-5.26,4.64q-17.9.92-35.75,2.36c-1.89.15-3.69,1.46-5.54,2.23.86,1.92,1.3,4.24,2.67,5.68a115.09,115.09,0,0,0,10.88,9.94c1.66,1.35,3.89,2.69,5.91,2.76,6.28.2,12.59-.34,18.89-.34,3.64,0,7.28.5,11.09.79-1.35,3.49-2.46,6.33-3.72,9.6l-5.12-3.93a2.73,2.73,0,0,0-.39,1.07q-1.62,10.44-3.16,20.89Q195,291.12,194,298.72c-.27,2-.37,4.12-.54,6.18.29.94-.66,1.79-.85,2.8-1.52,8.07-2.87,16.18-4.35,24.26-.77,4.23-1.75,8.42-2.56,12.64-.25,1.3-.09,2.69-.39,4-.53,2.27-.61,5.61-2.07,6.47-2.74,1.62-6.33,1.8-9.51,2.56-1,6.1,1.41,12.74-3.72,18,4.54,3.79,6.15,8.69,5.35,14.57a70.67,70.67,0,0,0-.51,9.65,2.67,2.67,0,0,0,1.75,1.92c6.94.87,13.89,1.71,20.87,2.23a19.32,19.32,0,0,0,8.1-.87c2-.79,4.66-2.74,5.09-4.62,2.25-9.84,3.74-19.86,5.86-29.73.45-2.1,2.21-4.1,3.81-5.7,1.8-1.82,4.1-3.15,6.63-5a31.42,31.42,0,0,1-5.54-.58c-1-.29-2.53-1.41-2.54-2.17-.05-5.73.14-11.47.41-17.2.16-3.17.63-6.32,1-9.48l-1.23-.26c-.67,2.49-1.33,5-2,7.62a13.21,13.21,0,0,1-1.48-.69c.77-2.69,1.57-5.37,2.44-8,.48-1.47,1.51-2.9,1.54-4.37.07-3.44-.75-6.94-.38-10.32.44-4,1.92-7.8,2.63-11.74a12.47,12.47,0,0,1,1.75-4.49c2.1-3.56,4.22-8.43,3.32-12-.79-3.2,0-6-.52-9-.33-2-1.27-4.75-.36-6,3.14-4.31,3.38-8.76,2-13.5l7.75-2.87-3.4-.72-.07-1.09L257.69,246c-.29-.43-.85-1.22-1.59-2.28L246.69,245c-.06-.39-.11-.77-.17-1.16l6.26-1.11c-5.57-.79-10.58-.37-14.74-3.68a97.23,97.23,0,0,1,10.73-4c2.41-.82,4.73-1.88,7.08-2.84l.4,1.12-1.27.78a19.89,19.89,0,0,0,6.72-.57c5.72-1.42,11.4-3.06,17.11.09a3.55,3.55,0,0,0,1.84,0c5.42-.58,10.84-1.73,16.25-1.67,15.75.19,31.5.9,47.25,1.3,1.38,0,2.79-.65,4.19-1l-.16-.88-64.91-1.74c1.36-5.57,2.47-10.79,4-15.91,1.06-3.67,2.62-7.19,3.95-10.77l1.18.23v8l2.69-2c-.45,2.12-.76,3.56-1.07,5,1.26-.51,2.45-2.4,2.68-2.29,3.63,1.75,2.77-1.73,3.39-3,.55-1.13.34-2.62.47-4.11l3.56-.73-2.41-.7.12-.41,52.55-1.86c-.22-1-.49-1.29-.77-1.31-8.33-.4-16.65-.86-25-1.06-1.32,0-2.65,1.68-4,1.71-8,.17-15.92.09-24.22.09,2.48-6-3.69-1.68-4.29-5.07,6.78-.19,13.45-.46,20.13-.55s13.58,0,21.06,0l-3.54-1.41c9.44-.53,18.08-1,26.73-1.44.31,0,.67.85,1.45,1.9l-7,.79,6.29.57c0,4.25,0,8.15,0,12,.09,7.18.29,14.36.32,21.54,0,2.41-.95,4-3.87,3.41a13.87,13.87,0,0,0-3.45.15l0,.63,7.32,1.33c-.93,3.76-1.75,7-2.61,10.47l1.2,1.82-4.91,1.81,2.87.48-.05.66-4.4.35c6.32,2.24,6.31,2.24,5.91,8.51-.3,4.7-.61,9.41-.84,14.12-.93,19.14-1.77,38.29-2.76,57.43-.59,11.64-1.38,23.27-2.08,34.77a16.36,16.36,0,0,0-3,.55c0,3.68-4.11,6.81-1.44,10.82,1.16,1.74,1.95,3.38-1.36,3.73-.72.07-2,1.66-1.84,2.22.9,3.23,1.7,6.65,3.48,9.39.82,1.25,3.82,1.07,5,1.34-.49,2.57-1.11,5.52-1.56,8.49a34.63,34.63,0,0,0-.12,4.33c-.08,4.47,2.61,6.37,7.18,5.24a30.42,30.42,0,0,1,4.72-.39c-1.79,3.27.36,3.42,2.1,3.49a86,86,0,0,0,10.65,0c6.81-.57,13.4-1.54,18.55-7.09,2.29-2.47,2.61-4.27,1.56-7.21s-2-6-1.83-9c.37-6.38-.26-12.39-3-18.2-1.82-3.82-.42-6.21,3.65-7.52a26.71,26.71,0,0,0,4.76-2.67l-.39-1.45c-2.53,0-5.06-.08-7.58,0s-3.94-.83-4-3.28c0-4.65.15-9.3.28-14,.1-3.52,1.35-7.52.08-10.43s-1.06-5.11-1-7.76c.11-3.21,0-6.42,0-9.63h-1.71v16.08l-1.17,0-2.76-22.77-1.1.07v10.43a3.32,3.32,0,0,1-1-2.67c0-3,.26-6.05,0-9-.34-4.13-2.44-8.31.89-12.19a3.3,3.3,0,0,0,.35-1.9c.2-8.52.56-17,.44-25.55,0-2.75-1.35-5.49-2.09-8.23l-.79.1-2,19.8-1.16,0c-.27-1.88-.54-3.76-.85-6L374.36,277c-.5-1.6-.82-2.61-1.13-3.62l-.51.07q-.45,11.06-.92,22.11l-3.9-3.35.08.07-2.39.31c-.64-1.54-1.13-2.72-1.63-3.9-1,8.57-1.08,8.76-5.43,9.59.84-15.44,1.66-30.68,2.49-45.93l1.84-.26,2.64,6.31c-.47-4.23.34-6.58,5.06-5.32a69.2,69.2,0,0,0,9.13,1.3,5.13,5.13,0,0,0,2.37,0c5.33-2.21,10.38,0,15.57,0,0,.4,0,.8,0,1.2l-5.73.4c17.94,3.6,35.25,8.67,54.38,6.79L442,258.92l2.5-.58c.73-1.86,1.09-2.78,1.59-4l-5.7-1.42c2.88-2.32,5.17-4.49,7.78-6.2,3.08-2,6.44-3.64,9.68-5.43-.16-.68-.31-1.35-.46-2l-64.25-5.32-.12,1.73c5.92.19,11.84.31,17.75.62,1.19.06,2.34.85,3.51,1.3l-.37.88-2.55.88c4.06-.46,8.24,2.18,12.1-.95.9-.73,3.24.08,4.84.5,2.89.76,5.69,1.84,8.57,2.64,1.24.35,2.68.09,3.86.55.88.34,1.48,1.4,2.21,2.14a8.47,8.47,0,0,1-2.31,1.66,29.82,29.82,0,0,1-4.55.61l.11.68,5.18.28c-.09.61-.19,1.22-.28,1.83l-29.87-4.67c0-.39.07-.78.1-1.17l3.87-.41a41.21,41.21,0,0,0-9.69.66c-1.64.29-3.21,1.33-4.83,1.38-3.8.12-7.62,0-11.42-.31-1.37-.09-3.07-.36-4-1.22-2.39-2.31-4.29-1.56-6.28,0,.84,2.12,1.59,4,2.27,5.7-2.61,0-5.55,0-8.49,0-2.08,0-4.39.27-6.16-.53-1.49-.67-2.64-2.58-3.46-4.18-1.27-2.48.57-4.1,4.62-4.14-.1-1-.19-1.86-.27-2.65l-4.75.87-.51-1.13L368.4,233l-5.21.38c-1.63-5.09-1.05-9,1.84-11.54l.77,4.21,1.36-.34c-1.13-4.08-2.26-8.15-3.45-12.47,4.35-.6,4.6,3.27,6.73,5.41L367.86,204l1.39-.23,1,3.49.49-3.55c.58,1.36,1.08,2.52,1.57,3.68l.38-.19c-.17-1.94-.35-3.87-.52-5.81l1.14-.18,1.35,2,.93-.48c-.89-1.85-1.92-3.66-2.64-5.58s-1.2-4,1.86-4.44c1.36-.2,2.73-.28,4.1-.41l0-1.26a27.83,27.83,0,0,1-4.57-.06,16.9,16.9,0,0,1-3.54-1.42c.92-.63,1.84-1.25,2.75-1.89a20.33,20.33,0,0,1,2.24-1.6c4.3-2.21,8.36-7.11,13.33-1,1.58-4.11,3.24-4.28,6.41-2.28,7.44-.37,13.4.08,19-1.13,6.4-1.37,11.44.62,17.16,3.84-2.81.22-5.08.05-7.15.61-5.72,1.57-11.31,3.58-17,5.12-2.49.67-5.9,1.76-7.63.66-4.12-2.59-7.69-.1-11.5,0,4.54.93,9.15,1.8,13.68,1.49a69.46,69.46,0,0,0,14.9-2.8c4.67-1.38,9.39-.33,14.11-1.4,6.59-1.49,13.53-1.29,20.21-2.46s13.41-3.45,20.21-4.72c9.13-1.71,18.35-3,27.55-4.32,3.63-.54,7.3-.84,10.95-1.24C509.35,175.47,508.77,175.18,508.2,175.21ZM359.84,300.08a5.26,5.26,0,0,1,4.46,1.31c1.88,1.85,3.19,4.27,5.28,7.21.81-4.63,1.53-8.81,2.26-13l0,.07.05-.12v.05l1.19-1.87v25.39l-5.49-5c2.68,5.65-1,10.54.52,15.15-1.84-.33-3.52-1.15-4.76-.72-2,.7-2.72,2.53-2.59,4.93.18,3.27.78,5.91,3.78,7.85,4.62,3,1.26,6.23-.05,9.33a17.38,17.38,0,0,1-1.43,2.45l-4.55.87c-2.39-1.8-2-4.81-1.19-7.71.56-2.07,2.32-4,2.31-6,0-3.58-.9-7.17-1.54-10.73s-1.48-7.26,1.08-10.56a2.24,2.24,0,0,0,.33-.65c-4.91-3.16,2.85-7.58-1.76-10.83l3.93-1.73L360,302.69l-1.19,1.79-.75-.32C358.62,302.73,358.88,300.41,359.84,300.08Z"/></svg>